#!OML:ASF E:\Mandelcareful walks\Project 1\Capture day 1\Session 1\Subject1.ASF
:FULLY-SPECIFIED
:DEGREES
442
root -4.22402 16.7989 0.880959 144.73 81.1227 136.379
lowerback 18.3365 2.02128 -3.80956
upperback 4.61833 2.19593 -0.625113
thorax -5.39601 1.23057 0.987384
lowerneck -26.3823 6.18685 1.54508
upperneck 27.6951 11.7078 -8.50574
head 14.6743 4.08036 -1.30205
rclavicle -2.78299e-015 -2.06736e-014
rhumerus -18.2981 19.4689 -92.517
rradius 37.5455
rwrist -14.9399
rhand -14.425 -33.3344
rfingers 7.12502
rthumb 11.7193 -62.9866
lclavicle -2.78299e-015 -2.06736e-014
lhumerus -32.5563 -11.3446 89.8314
lradius 32.9361
lwrist 20.4134
lhand -22.5298 -12.1022
lfingers 7.12502
lthumb 3.89717 17.8419
rfemur -16.2322 -15.1692 10.4395
rtibia 29.6443
rfoot -17.9285 -12.3585
rtoes 2.23696
lfemur -15.1328 3.37434 -15.9585
ltibia 21.8578
lfoot -12.3399 11.8756
ltoes -10.2608
443
root -4.20984 16.8063 0.874316 144.343 81.4352 135.955
lowerback 18.0821 2.00228 -3.9213
upperback 4.5266 2.15118 -0.617484
thorax -5.36112 1.20634 1.07521
lowerneck -26.4746 6.14584 1.42253
upperneck 27.7582 11.6381 -8.31965
head 14.6911 4.0564 -1.22044
rclavicle -2.54444e-014 -1.82882e-014
rhumerus -18.34 19.5924 -92.7377
rradius 37.2332
rwrist -14.9866
rhand -14.663 -32.8771
rfingers 7.12502
rthumb 11.4898 -62.5423
lclavicle -2.54444e-014 -1.82882e-014
lhumerus -32.4622 -10.9731 89.6691
lradius 32.7694
lwrist 20.0031
lhand -22.4319 -11.8686
lfingers 7.12502
lthumb 3.99167 18.0738
rfemur -16.1274 -14.9026 10.6024
rtibia 29.346
rfoot -17.8914 -12.3627
rtoes 3.03916
lfemur -14.9414 3.3485 -15.7959
ltibia 21.6302
lfoot -12.437 12.1803
ltoes -9.9864
444
root -4.19856 16.8144 0.869148 143.536 81.6149 135.155
lowerback 17.897 1.9534 -4.1411
upperback 4.44169 2.0455 -0.642113
thorax -5.35402 1.15475 1.20116
lowerneck -26.2774 6.17768 1.59419
upperneck 27.4968 11.5999 -8.42971
head 14.5523 4.05859 -1.30452
rclavicle -2.00773e-014 5.56597e-015
rhumerus -18.354 19.5008 -92.9681
rradius 36.8966
rwrist -14.9023
rhand -14.5505 -32.415
rfingers 7.12502
rthumb 11.5983 -62.0741
lclavicle -2.00773e-014 5.56597e-015
lhumerus -32.3967 -10.7067 89.5382
lradius 32.7578
lwrist 19.9289
lhand -22.3523 -11.7569
lfingers 7.12502
lthumb 4.06861 18.1839
rfemur -15.9597 -14.7393 10.6148
rtibia 29.0374
rfoot -17.7141 -12.338
rtoes 3.01388
lfemur -14.7115 3.12364 -15.7534
ltibia 21.4077
lfoot -12.5595 12.5669
ltoes -9.7598
445
root -4.18676 16.822 0.862566 142.456 81.8085 134.109
lowerback 17.6872 1.91686 -4.29459
upperback 4.3794 1.97177 -0.660958
thorax -5.30877 1.11772 1.28944
lowerneck -25.9256 6.20156 1.84051
upperneck 27.0428 11.5308 -8.66096
head 14.3119 4.0515 -1.45757
rclavicle 8.54774e-015 2.8625e-014
rhumerus -18.3966 19.4566 -93.1493
rradius 36.5743
rwrist -14.9429
rhand -14.4657 -32.2414
rfingers 7.12502
rthumb 11.6801 -61.8958
lclavicle 8.54774e-015 2.8625e-014
lhumerus -32.2637 -10.4868 89.4753
lradius 32.7514
lwrist 19.7597
lhand -22.2442 -11.5274
lfingers 7.12502
lthumb 4.17296 18.4114
rfemur -15.7825 -14.6258 10.6104
rtibia 28.7091
rfoot -17.4169 -12.3092
rtoes 1.97051
lfemur -14.4217 2.85335 -15.7268
ltibia 21.1857
lfoot -12.7458 12.9611
ltoes -9.3255
446
root -4.17406 16.8289 0.855525 141.027 82.0181 132.665
lowerback 17.4817 1.89708 -4.43568
upperback 4.25029 1.91588 -0.690313
thorax -5.33723 1.08959 1.35384
lowerneck -25.752 6.14496 1.82881
upperneck 26.842 11.4066 -8.63684
head 14.1768 4.01364 -1.47477
rclavicle -1.59028e-014 -8.34896e-015
rhumerus -18.651 19.3013 -93.3462
rradius 36.4836
rwrist -14.7766
rhand -14.3623 -32.6667
rfingers 7.12502
rthumb 11.7798 -62.3155
lclavicle -1.59028e-014 -8.34896e-015
lhumerus -32.1966 -10.2995 89.4508
lradius 32.7715
lwrist 19.4839
lhand -22.0838 -11.179
lfingers 7.12502
lthumb 4.32781 18.7567
rfemur -15.6413 -14.4901 10.5891
rtibia 28.354
rfoot -17.2113 -12.2261
rtoes 2.08332
lfemur -14.1475 2.69968 -15.7392
ltibia 20.9402
lfoot -12.8991 13.3207
ltoes -9.11475
447
root -4.15998 16.8374 0.85164 140.121 82.2448 131.762
lowerback 17.3138 1.84166 -4.56622
upperback 4.0979 1.8147 -0.667413
thorax -5.40907 1.04007 1.47618
lowerneck -25.7632 6.11665 1.718
upperneck 26.842 11.385 -8.56478
head 14.1643 4.00216 -1.43236
rclavicle 1.94809e-014 -1.11319e-014
rhumerus -18.8754 19.1973 -93.531
rradius 36.2377
rwrist -14.6256
rhand -14.5451 -32.3863
rfingers 7.12502
rthumb 11.6035 -62.0451
lclavicle 1.94809e-014 -1.11319e-014
lhumerus -32.1493 -10.1107 89.4442
lradius 32.8454
lwrist 19.3245
lhand -21.8809 -10.8766
lfingers 7.12502
lthumb 4.52374 19.0551
rfemur -15.4178 -14.2669 10.6558
rtibia 27.9726
rfoot -17.1397 -12.2145
rtoes 3.17311
lfemur -13.864 2.64393 -15.6599
ltibia 20.6845
lfoot -12.9989 13.5588
ltoes -9.04131
